<svg width="42" height="30" viewBox="0 0 42 30" fill="none" xmlns="http://www.w3.org/2000/svg">
<g clip-path="url(#clip0_349_415)">
<path d="M3.75931 0.453125C4.42151 0.453094 5.07193 0.628181 5.64463 0.960632C6.21733 1.29308 6.69193 1.77108 7.0203 2.34613L22.3723 29.2231L13.7723 29.4021L0.499305 6.06415C0.174405 5.49334 0.00493497 4.84728 0.00784947 4.19049C0.010764 3.5337 0.185954 2.88913 0.515906 2.32123C0.845858 1.75333 1.31902 1.28191 1.88816 0.954102C2.4573 0.62629 3.10252 0.453567 3.75931 0.453125Z" fill="black"/>
<path d="M11.957 0H20.591L33.871 23.252C34.1957 23.8206 34.3669 24.4637 34.368 25.1184C34.3692 25.7731 34.2001 26.4169 33.8774 26.9865C33.5548 27.5562 33.0895 28.0321 32.5274 28.3677C31.9653 28.7034 31.3256 28.8871 30.671 28.901C29.9906 28.9151 29.3191 28.7451 28.7274 28.4091C28.1356 28.0731 27.6455 27.5835 27.309 26.992L11.957 0Z" fill="black"/>
<path d="M35.5441 1.45704e-08H36.8561C37.6712 -6.59535e-05 38.4706 0.223874 39.1671 0.647278C39.8636 1.07068 40.4303 1.67726 40.8054 2.40088C41.1805 3.1245 41.3496 3.9373 41.2942 4.75049C41.2388 5.56367 40.961 6.346 40.4911 7.01202L39.1791 8.87201C38.7715 9.44792 38.2299 9.91613 37.6011 10.2363C36.9724 10.5564 36.2752 10.7189 35.5697 10.7097C34.8642 10.7006 34.1714 10.5201 33.5511 10.1837C32.9309 9.84738 32.4017 9.36528 32.0092 8.77899L30.8421 6.74103L26.9951 0.00103761L35.5441 1.45704e-08Z" fill="black"/>
</g>
<defs>
<clipPath id="clip0_349_415">
<rect width="41.311" height="29.397" fill="white"/>
</clipPath>
</defs>
</svg>
